<svg width="37" height="36" viewBox="0 0 37 36" fill="none" xmlns="http://www.w3.org/2000/svg">
<path d="M3.5 28.5V27C3.5 21.201 8.20102 16.5 14 16.5" stroke="#C2ABA4" stroke-width="2" stroke-linecap="round" stroke-linejoin="round"/>
<path d="M14 16.5C17.3137 16.5 20 13.8137 20 10.5C20 7.18629 17.3137 4.5 14 4.5C10.6863 4.5 8 7.18629 8 10.5C8 13.8137 10.6863 16.5 14 16.5Z" stroke="#C2ABA4" stroke-width="2" stroke-linecap="round" stroke-linejoin="round"/>
<path d="M22.4789 18.0103C23.0718 15.9966 25.9271 15.9966 26.5199 18.0103L26.6257 18.3692C26.6671 18.5098 26.7394 18.6393 26.8374 18.7483C26.9354 18.8572 27.0565 18.9429 27.1919 18.999C27.3272 19.0551 27.4735 19.0802 27.6198 19.0724C27.7661 19.0647 27.9089 19.0243 28.0376 18.9542L28.3661 18.7753C30.2099 17.7707 32.2293 19.7878 31.2247 21.6328L31.0447 21.9613C30.9746 22.09 30.9342 22.2327 30.9264 22.3791C30.9187 22.5254 30.9438 22.6716 30.9999 22.807C31.0559 22.9424 31.1416 23.0635 31.2506 23.1615C31.3596 23.2594 31.4891 23.3318 31.6297 23.3732L31.9886 23.4789C34.0023 24.0718 34.0023 26.9271 31.9886 27.5199L31.6297 27.6257C31.4891 27.6671 31.3596 27.7394 31.2506 27.8374C31.1416 27.9354 31.0559 28.0565 30.9999 28.1919C30.9438 28.3272 30.9187 28.4735 30.9264 28.6198C30.9342 28.7661 30.9746 28.9089 31.0447 29.0376L31.2236 29.3661C32.2293 31.2099 30.2111 33.2293 28.3661 32.2247L28.0376 32.0447C27.9089 31.9746 27.7661 31.9342 27.6198 31.9264C27.4735 31.9187 27.3272 31.9438 27.1919 31.9999C27.0565 32.0559 26.9354 32.1416 26.8374 32.2506C26.7394 32.3596 26.6671 32.4891 26.6257 32.6297L26.5199 32.9886C25.9271 35.0023 23.0718 35.0023 22.4789 32.9886L22.3732 32.6297C22.3318 32.4891 22.2594 32.3596 22.1615 32.2506C22.0635 32.1416 21.9424 32.0559 21.807 31.9999C21.6716 31.9438 21.5254 31.9187 21.3791 31.9264C21.2327 31.9342 21.09 31.9746 20.9613 32.0447L20.6328 32.2236C18.7878 33.2293 16.7707 31.2111 17.7742 29.3661L17.9542 29.0376C18.0243 28.9089 18.0647 28.7661 18.0724 28.6198C18.0802 28.4735 18.0551 28.3272 17.999 28.1919C17.9429 28.0565 17.8572 27.9354 17.7483 27.8374C17.6393 27.7394 17.5098 27.6671 17.3692 27.6257L17.0103 27.5199C14.9966 26.9271 14.9966 24.0718 17.0103 23.4789L17.3692 23.3732C17.5098 23.3318 17.6393 23.2594 17.7483 23.1615C17.8572 23.0635 17.9429 22.9424 17.999 22.807C18.0551 22.6716 18.0802 22.5254 18.0724 22.3791C18.0647 22.2327 18.0243 22.09 17.9542 21.9613L17.7753 21.6328C16.7707 19.7889 18.7878 17.7707 20.6328 18.7742L20.9613 18.9542C21.09 19.0243 21.2327 19.0647 21.3791 19.0724C21.5254 19.0802 21.6716 19.0551 21.807 18.999C21.9424 18.9429 22.0635 18.8572 22.1615 18.7483C22.2594 18.6393 22.3318 18.5098 22.3732 18.3692L22.4789 18.0103Z" stroke="#C2ABA4" stroke-width="2"/>
</svg>
