<svg width="37" height="36" viewBox="0 0 37 36" fill="none" xmlns="http://www.w3.org/2000/svg">
<path d="M5 30.0004L6.95 24.1504C5.26467 21.6578 4.65499 18.706 5.23433 15.8438C5.81367 12.9816 7.54259 10.4039 10.0997 8.58977C12.6567 6.77568 15.8679 5.84871 19.1361 5.98122C22.4044 6.11374 25.5073 7.29671 27.8679 9.3102C30.2286 11.3237 31.6863 14.0307 31.9701 16.9278C32.2539 19.825 31.3444 22.7152 29.4108 25.0611C27.4772 27.4069 24.651 29.0488 21.4577 29.6814C18.2644 30.314 14.9213 29.8943 12.05 28.5004L5 30.0004" stroke="#C2ABA4" stroke-width="2" stroke-linecap="round" stroke-linejoin="round"/>
<path d="M18.5 18V18.015" stroke="#C2ABA4" stroke-width="3" stroke-linecap="round" stroke-linejoin="round"/>
<path d="M12.5 18V18.015" stroke="#C2ABA4" stroke-width="3" stroke-linecap="round" stroke-linejoin="round"/>
<path d="M24.5 18V18.015" stroke="#C2ABA4" stroke-width="3" stroke-linecap="round" stroke-linejoin="round"/>
</svg>
